<svg width="33" height="33" viewBox="0 0 33 33" fill="none" xmlns="http://www.w3.org/2000/svg">
<g id="Camera_Icon" clip-path="url(#clip0_207_234)">
<path id="Vector" d="M21.5 17.5C21.5 20.2614 19.2614 22.5 16.5 22.5C13.7386 22.5 11.5 20.2614 11.5 17.5C11.5 14.7386 13.7386 12.5 16.5 12.5C19.2614 12.5 21.5 14.7386 21.5 17.5Z" fill="#616770"/>
<path id="camera-ic" d="M4.5 8.5C2.29086 8.5 0.5 10.2909 0.5 12.5V24.5C0.5 26.7092 2.29086 28.5 4.5 28.5H28.5C30.7092 28.5 32.5 26.7092 32.5 24.5V12.5C32.5 10.2909 30.7092 8.5 28.5 8.5H26.1568C25.096 8.5 24.0786 8.07858 23.3284 7.32842L21.6716 5.67158C20.9214 4.92142 19.904 4.5 18.8431 4.5H14.1569C13.096 4.5 12.0786 4.92142 11.3284 5.67158L9.67158 7.32842C8.92142 8.07858 7.90402 8.5 6.84314 8.5H4.5ZM5.5 12.5C4.94772 12.5 4.5 12.0523 4.5 11.5C4.5 10.9477 4.94772 10.5 5.5 10.5C6.05228 10.5 6.5 10.9477 6.5 11.5C6.5 12.0523 6.05228 12.5 5.5 12.5ZM23.5 17.5C23.5 21.366 20.366 24.5 16.5 24.5C12.634 24.5 9.5 21.366 9.5 17.5C9.5 13.634 12.634 10.5 16.5 10.5C20.366 10.5 23.5 13.634 23.5 17.5Z" fill="#616770"/>
</g>
<defs>
<clipPath id="clip0_207_234">
<rect width="32" height="32" fill="white" transform="translate(0.5 0.5)"/>
</clipPath>
</defs>
</svg>
