<svg width="32" height="32" viewBox="0 0 32 32" fill="none" xmlns="http://www.w3.org/2000/svg">
<g id="Media" clip-path="url(#clip0_207_280)">
<path id="Vector" d="M9.00307 18C10.6599 18 12.0031 16.6569 12.0031 15C12.0031 13.3431 10.6599 12 9.00307 12C7.34621 12 6.00307 13.3431 6.00307 15C6.00307 16.6569 7.34621 18 9.00307 18Z" fill="#46BD62"/>
<path id="Vector_2" d="M28.003 26C28.003 28.2092 26.2122 30 24.003 30H4.00306C1.79391 30 0.00305176 28.2092 0.00305176 26V10C0.00305176 7.79188 1.79225 6.00166 3.99996 6C3.99996 3.79086 5.79084 2 7.99996 2H28C30.2092 2 32 3.79086 32 6V22C32 24.2082 30.2108 25.9984 28.003 26ZM28 4H7.99996C6.8954 4 5.99996 4.89544 5.99996 6H24.003C26.2122 6 28.003 7.79086 28.003 10V24C29.1062 23.9984 30 23.1036 30 22V6C30 4.89544 29.1046 4 28 4ZM4.00306 8C2.89848 8 2.00306 8.89544 2.00306 10V26L7.29594 21.293C7.633 20.9558 8.16112 20.9036 8.55776 21.168L13.8756 24.7132L21.296 17.2929C21.6004 16.9886 22.0652 16.9131 22.4502 17.1056L26.003 21V10C26.003 8.89544 25.1076 8 24.003 8H4.00306Z" fill="#616770"/>
</g>
<defs>
<clipPath id="clip0_207_280">
<rect width="32" height="32" fill="white"/>
</clipPath>
</defs>
</svg>